<svg width="33" height="35" viewBox="0 0 33 35" fill="none" xmlns="http://www.w3.org/2000/svg">
<g clip-path="url(#clip0_16_568)">
<path d="M12.2114 25.18L21.5976 20.4855C21.7697 20.3902 21.8632 20.2448 21.8781 20.0493C21.893 19.8537 21.81 19.7061 21.6293 19.6063L17.7744 17.4528L23.968 11.301C24.1616 11.1233 24.24 10.8986 24.2031 10.6269C24.1662 10.3552 24.0394 10.1588 23.8227 10.0378L18.6189 7.13062C18.3668 6.98976 18.1146 6.95642 17.8624 7.03058C17.6093 7.10423 17.4116 7.26847 17.2692 7.52331L11.8946 17.1439C11.7523 17.3987 11.7161 17.6532 11.7861 17.9074C11.8561 18.1615 12.0167 18.3588 12.2679 18.4991L15.0694 20.0642L12.2114 25.18ZM9.91988 27.4034C9.77489 27.2527 9.68771 27.071 9.65834 26.8582C9.63002 26.6435 9.67302 26.4338 9.78734 26.2292L12.8747 20.7027L11.474 19.9202C10.8474 19.5701 10.4386 19.0484 10.2476 18.355C10.0557 17.6611 10.1376 16.9958 10.4933 16.3592L15.8655 6.74283C16.2211 6.1062 16.7447 5.68768 17.4362 5.48728C18.1273 5.28541 18.7862 5.35951 19.4128 5.70956L24.7777 8.70669C25.4183 9.06457 25.8113 9.59487 25.9566 10.2976C26.1029 11.0008 25.9285 11.597 25.4334 12.0862L20.4201 17.0662L22.6697 18.323C23.3486 18.7023 23.6789 19.2821 23.6608 20.0625C23.643 20.8444 23.28 21.4198 22.5716 21.7885L11.0603 27.5892C10.8395 27.6971 10.6308 27.7309 10.434 27.6905C10.2362 27.6497 10.0649 27.554 9.91988 27.4034Z" fill="#2B2B2B"/>
</g>
<defs>
<clipPath id="clip0_16_568">
<rect width="22.4633" height="25.941" fill="white" transform="translate(12.9832 0.769073) rotate(29.1901)"/>
</clipPath>
</defs>
</svg>
