<svg width="24" height="24" viewBox="0 0 24 24" fill="none" xmlns="http://www.w3.org/2000/svg">
<path d="M8.807 13.75H4.932C4.41859 13.7529 3.92721 13.9589 3.5652 14.323C3.20319 14.687 2.99999 15.1796 3 15.693V19.568C2.99974 19.8218 3.04953 20.0731 3.14653 20.3077C3.24353 20.5422 3.38583 20.7553 3.56528 20.9347C3.74474 21.1142 3.95783 21.2565 4.19235 21.3535C4.42687 21.4505 4.67821 21.5003 4.932 21.5H8.807C9.32048 21.5005 9.81324 21.2975 10.1773 20.9353C10.5413 20.5732 10.7469 20.0815 10.749 19.568V15.693C10.7493 15.4379 10.6992 15.1853 10.6017 14.9495C10.5042 14.7138 10.3612 14.4996 10.1808 14.3192C10.0004 14.1388 9.78622 13.9958 9.55048 13.8983C9.31475 13.8008 9.0621 13.7507 8.807 13.751M8.807 3H4.932C4.67821 2.99974 4.42687 3.04953 4.19235 3.14653C3.95783 3.24353 3.74474 3.38583 3.56528 3.56528C3.38583 3.74474 3.24353 3.95783 3.14653 4.19235C3.04953 4.42687 2.99974 4.67821 3 4.932V8.807C2.99947 9.32048 3.20253 9.81324 3.56468 10.1773C3.92683 10.5413 4.41852 10.7469 4.932 10.749H8.807C9.0621 10.7493 9.31475 10.6992 9.55048 10.6017C9.78622 10.5042 10.0004 10.3612 10.1808 10.1808C10.3612 10.0004 10.5042 9.78622 10.6017 9.55048C10.6992 9.31475 10.7493 9.0621 10.749 8.807V4.932C10.7469 4.41852 10.5413 3.92683 10.1773 3.56468C9.81324 3.20253 9.32048 2.99947 8.807 3ZM19.568 3H15.693C15.1795 2.99947 14.6868 3.20253 14.3227 3.56468C13.9587 3.92683 13.7531 4.41852 13.751 4.932V8.807C13.7513 9.32197 13.956 9.81577 14.3201 10.1799C14.6842 10.544 15.178 10.7487 15.693 10.749H19.568C20.0815 10.7469 20.5732 10.5413 20.9353 10.1773C21.2975 9.81324 21.5005 9.32048 21.5 8.807V4.932C21.5003 4.67821 21.4505 4.42687 21.3535 4.19235C21.2565 3.95783 21.1142 3.74474 20.9347 3.56528C20.7553 3.38583 20.5422 3.24353 20.3077 3.14653C20.0731 3.04953 19.8218 2.99974 19.568 3Z" stroke="white" stroke-width="1.2" stroke-linecap="round" stroke-linejoin="round"/>
<path d="M17.6179 14.067V21.183M14.0669 17.633H21.1829" stroke="white" stroke-width="1.2" stroke-miterlimit="10" stroke-linecap="round"/>
</svg>
