<svg width="24" height="25" viewBox="0 0 24 25" fill="none" xmlns="http://www.w3.org/2000/svg">
<path d="M10.7999 15C10.4816 15 10.1764 14.8683 9.95137 14.6339C9.72633 14.3995 9.5999 14.0815 9.5999 13.75V6.35375C7.82382 6.67218 6.22688 7.67263 5.12432 9.15761C4.02176 10.6426 3.49371 12.5042 3.64441 14.3749C3.79511 16.2456 4.6136 17.9895 5.93832 19.2623C7.26304 20.5351 8.99771 21.2444 10.7999 21.25C12.5016 21.2503 14.1484 20.6227 15.4482 19.4786C16.7479 18.3345 17.6167 16.7478 17.9003 15H10.7999ZM9.6035 5.0875C10.2599 4.99001 10.7999 5.56 10.7999 6.25V13.75H17.9999C18.6623 13.75 19.2095 14.3125 19.1159 14.9963C18.8084 17.1821 17.7188 19.1661 16.0655 20.5499C14.4123 21.9338 12.3179 22.6152 10.2024 22.4575C8.08698 22.2998 6.10704 21.3146 4.65988 19.6996C3.21271 18.0846 2.40539 15.9592 2.3999 13.75C2.39951 11.645 3.12764 9.61037 4.45075 8.01929C5.77387 6.42821 7.60329 5.38732 9.6035 5.0875ZM13.1999 11.25V3.75C15.1095 3.75 16.9408 4.54018 18.2911 5.9467C19.6413 7.35323 20.3999 9.26088 20.3999 11.25H13.1999ZM20.4743 12.5C21.0719 12.5 21.5867 12.0425 21.5987 11.42L21.5999 11.25C21.6 10.0866 21.3773 8.93486 20.9449 7.86217C20.5125 6.78948 19.8791 5.81739 19.0818 5.00274C18.2844 4.1881 17.3391 3.54728 16.3011 3.11776C15.2631 2.68824 14.1534 2.47865 13.0367 2.50125C12.4391 2.51375 11.9999 3.05125 11.9999 3.6725V11.25C11.9999 11.5815 12.1263 11.8995 12.3514 12.1339C12.5764 12.3683 12.8816 12.5 13.1999 12.5H20.4743Z" fill="white"/>
</svg>
