<svg width="40" height="40" viewBox="0 0 40 40" fill="none" xmlns="http://www.w3.org/2000/svg">
<rect y="0.186432" width="39.0372" height="38.9499" rx="6" fill="#2B2B2B"/>
<path d="M19.5426 18.8463V30M19.5426 30L23.4641 26.0634M19.5426 30L15.6211 26.0634M14.3139 12.9887C15.2916 13.1306 16.1973 13.5863 16.8956 14.2878M26.7321 22.1268C28.7177 22.1268 30 20.5115 30 18.5183C29.9999 17.7292 29.7422 16.9618 29.2662 16.3338C28.7903 15.7057 28.1223 15.2516 27.3647 15.041C27.2482 13.5693 26.6406 12.1801 25.6402 11.098C24.6398 10.0158 23.305 9.30402 21.8517 9.07762C20.3985 8.85122 18.9116 9.12346 17.6315 9.85032C16.3514 10.5772 15.353 11.7162 14.7976 13.0832C13.6282 12.7578 12.378 12.912 11.3219 13.512C10.2658 14.1119 9.49042 15.1085 9.16627 16.2823C8.84212 17.4562 8.99578 18.7112 9.59344 19.7713C10.1911 20.8315 11.1838 21.6099 12.3532 21.9353" stroke="white" stroke-width="2" stroke-linecap="round" stroke-linejoin="round"/>
</svg>
