<svg width="40" height="40" viewBox="0 0 40 40" fill="none" xmlns="http://www.w3.org/2000/svg">
<rect y="0.186432" width="39.0372" height="38.9499" rx="6" fill="#2B2B2B"/>
<path d="M25.2198 16.9868C27.4267 16.9988 28.622 17.0956 29.4012 17.862C30.2931 18.7391 30.2931 20.15 30.2931 22.9719V23.9697C30.2931 26.7926 30.2931 28.2036 29.4012 29.0807C28.5104 29.9568 27.0746 29.9568 24.2052 29.9568H16.0879C13.2185 29.9568 11.7827 29.9568 10.8919 29.0807C10 28.2026 10 26.7926 10 23.9697V22.9719C10 20.15 10 18.7391 10.8919 17.862C11.6711 17.0956 12.8664 16.9988 15.0733 16.9868" stroke="white" stroke-width="2" stroke-linecap="round"/>
<path d="M20.1455 22.9719V10M20.1455 10L23.1895 13.4924M20.1455 10L17.1016 13.4924" stroke="white" stroke-width="2" stroke-linecap="round" stroke-linejoin="round"/>
</svg>
